<?xml version="1.0" standalone="no"?>
<svg xmlns="http://www.w3.org/2000/svg" xmlns:xlink="http://www.w3.org/1999/xlink" width="530pt" height="222pt" viewBox="0.00 0.00 530.34 221.60">
<g id="graph0" class="graph" transform="translate(4,217.60000610351562) scale(1)" data-name="UDP_File_Transfer">

<polygon fill="white" stroke="none" points="-4,4 -4,-217.6 526.34,-217.6 526.34,4 -4,4"/>
<!-- Client -->
<g id="node1" class="node" pointer-events="visible" data-name="Client">

<ellipse fill="none" stroke="black" cx="240.03" cy="-195.6" rx="34.78" ry="18"/>
<text text-anchor="middle" x="240.03" y="-191.4" font-family="Times,serif" font-size="14.00">Client</text>
</g>
<!-- Server -->
<g id="node2" class="node" pointer-events="visible" data-name="Server">

<ellipse fill="none" stroke="black" cx="240.03" cy="-106.8" rx="36.48" ry="18"/>
<text text-anchor="middle" x="240.03" y="-102.6" font-family="Times,serif" font-size="14.00">Server</text>
</g>
<!-- Client&#45;&gt;Server -->
<g id="edge1" class="edge" data-name="Client-&gt;Server">

<path fill="none" stroke="black" d="M205.19,-194.76C145.9,-194.21 29.27,-189.28 3.66,-159.6 -1.22,-153.95 -1.22,-148.45 3.66,-142.8 27.46,-115.21 129.91,-109.01 191.85,-107.83"/>
<polygon fill="black" stroke="black" points="191.83,-111.33 201.78,-107.68 191.73,-104.33 191.83,-111.33"/>
<text text-anchor="middle" x="81.21" y="-147" font-family="Times,serif" font-size="14.00">Request (RRQ/WRQ/DEL)</text>
</g>
<!-- Client&#45;&gt;Server -->
<g id="edge3" class="edge" data-name="Client-&gt;Server">

<path fill="none" stroke="black" d="M210.3,-185.75C197.65,-180.35 184.16,-172.03 176.83,-159.6 167.78,-144.23 182.86,-131.47 200.55,-122.45"/>
<polygon fill="black" stroke="black" points="201.54,-125.85 209.14,-118.48 198.59,-119.5 201.54,-125.85"/>
<text text-anchor="middle" x="225.62" y="-147" font-family="Times,serif" font-size="14.00" style="">File Data (WRQ)</text>
</g>
<!-- Server&#45;&gt;Client -->
<g id="edge2" class="edge" data-name="Server-&gt;Client">

<path fill="none" stroke="black" d="M261.15,-121.8C267.84,-127.45 274.43,-134.59 278.03,-142.8 281.03,-149.64 281.03,-152.76 278.03,-159.6 275.85,-164.57 272.57,-169.15 268.84,-173.25"/>
<polygon fill="black" stroke="black" points="266.68,-170.47 261.85,-179.89 271.51,-175.54 266.68,-170.47"/>
<text text-anchor="middle" x="350.98" y="-147" font-family="Times,serif" font-size="14.00">Acknowledgment (ACK)</text>
</g>
<!-- Server&#45;&gt;Client -->
<g id="edge6" class="edge" data-name="Server-&gt;Client">

<path fill="none" stroke="black" d="M276.52,-109.32C325.19,-112.21 407.41,-120.35 426.03,-142.8 430.79,-148.55 430.79,-153.85 426.03,-159.6 408.6,-180.61 335.42,-189.09 286.22,-192.46"/>
<polygon fill="black" stroke="black" points="286.16,-188.96 276.4,-193.08 286.6,-195.94 286.16,-188.96"/>
<text text-anchor="middle" x="475.69" y="-147" font-family="Times,serif" font-size="14.00" style="">File Data (RRQ)</text>
</g>
<!-- Backup -->
<g id="node3" class="node" pointer-events="visible" data-name="Backup">

<ellipse fill="none" stroke="black" cx="240.03" cy="-18" rx="40.57" ry="18"/>
<text text-anchor="middle" x="240.03" y="-13.8" font-family="Times,serif" font-size="14.00">Backup</text>
</g>
<!-- Server&#45;&gt;Backup -->
<g id="edge4" class="edge" data-name="Server-&gt;Backup">

<path fill="none" stroke="black" d="M214.77,-93.49C206.09,-87.86 197.35,-80.31 192.55,-70.8 186.56,-58.94 194.25,-47.8 205.08,-38.91"/>
<polygon fill="black" stroke="black" points="206.95,-41.88 213,-33.18 202.85,-36.21 206.95,-41.88"/>
<text text-anchor="middle" x="229.77" y="-58.2" font-family="Times,serif" font-size="14.00">Save Backup</text>
</g>
<!-- Backup&#45;&gt;Server -->
<g id="edge5" class="edge" data-name="Backup-&gt;Server">

<path fill="none" stroke="black" d="M255.13,-34.84C259.52,-40.45 263.75,-47.1 266.03,-54 268.37,-61.09 268.37,-63.71 266.03,-70.8 264.92,-74.14 263.36,-77.42 261.54,-80.56"/>
<polygon fill="black" stroke="black" points="258.73,-78.48 255.98,-88.71 264.51,-82.42 258.73,-78.48"/>
<text text-anchor="middle" x="328.06" y="-58.2" font-family="Times,serif" font-size="14.00">Recovery on Demand</text>
</g>
</g>
</svg>