<?xml version="1.0" standalone="no"?>
<svg xmlns="http://www.w3.org/2000/svg" xmlns:xlink="http://www.w3.org/1999/xlink" width="1194pt" height="220pt" viewBox="0.00 0.00 1193.80 220.00">
<g id="graph0" class="graph" transform="translate(4,216) scale(1)" data-name="UDP_File_Transfer_Workflow">

<polygon fill="white" stroke="none" points="-4,4 -4,-216 1189.8,-216 1189.8,4 -4,4" style=""/>
<g id="clust1" class="cluster" data-name="cluster_Client">

<polygon fill="lightblue" stroke="lightblue" points="8,-8 8,-204 890.42,-204 890.42,-8 8,-8" style=""/>
<text text-anchor="middle" x="449.21" y="-187.4" font-family="Times,serif" font-size="14.00" style="">Client (User Side)</text>
</g>
<g id="clust2" class="cluster" data-name="cluster_Server">

<polygon fill="lightgreen" stroke="lightgreen" points="1050.77,-45 1050.77,-176 1184.8,-176 1184.8,-45 1050.77,-45" style=""/>
<text text-anchor="middle" x="1117.79" y="-159.4" font-family="Times,serif" font-size="14.00" style="">Server (System Side)</text>
</g>
<!-- User -->
<g id="node1" class="node" pointer-events="visible" data-name="User">

<ellipse fill="none" stroke="black" cx="100.15" cy="-59" rx="84.31" ry="29.33" style=""/>
<text text-anchor="middle" x="100.15" y="-63.2" font-family="Times,serif" font-size="14.00" style="">User</text>
<text text-anchor="middle" x="100.15" y="-46.4" font-family="Times,serif" font-size="14.00" style="">(Select Operation)</text>
</g>
<!-- Client_App -->
<g id="node2" class="node" pointer-events="visible" data-name="Client_App">

<polygon fill="none" stroke="black" points="538.33,-98 418.69,-98 418.69,-62 538.33,-62 538.33,-98" style=""/>
<text text-anchor="middle" x="478.51" y="-75.8" font-family="Times,serif" font-size="14.00" style="">Client Application</text>
</g>
<!-- User&#45;&gt;Client_App -->
<g id="edge1" class="edge" data-name="User-&gt;Client_App">

<path fill="none" stroke="black" d="M180.24,-49.49C240.96,-44.11 326.65,-40.68 400.6,-53.2 407.56,-54.38 414.72,-56.11 421.75,-58.14" style=""/>
<polygon fill="black" stroke="black" points="420.6,-61.45 431.18,-61.09 422.68,-54.77 420.6,-61.45" style=""/>
<text text-anchor="middle" x="301.46" y="-57.2" font-family="Times,serif" font-size="14.00" style="">Input Operation (RRQ/WRQ/DEL)</text>
</g>
<!-- Client_App&#45;&gt;User -->
<g id="edge4" class="edge" data-name="Client_App-&gt;User">

<path fill="none" stroke="black" d="M418.39,-79.08C362.62,-77.92 276.7,-75.39 202.31,-70 198.89,-69.75 195.42,-69.48 191.91,-69.19" style=""/>
<polygon fill="black" stroke="black" points="192.4,-65.72 182.13,-68.32 191.78,-72.69 192.4,-65.72" style=""/>
<text text-anchor="middle" x="301.46" y="-82.2" font-family="Times,serif" font-size="14.00" style="">Operation Result/Feedback</text>
</g>
<!-- Server -->
<g id="node3" class="node" pointer-events="visible" data-name="Server">

<polygon fill="none" stroke="black" points="882.49,-112 760.22,-112 760.22,-76 882.49,-76 882.49,-112" style=""/>
<text text-anchor="middle" x="821.36" y="-89.8" font-family="Times,serif" font-size="14.00" style="">Server Application</text>
</g>
<!-- Client_App&#45;&gt;Server -->
<g id="edge2" class="edge" data-name="Client_App-&gt;Server">

<path fill="none" stroke="black" d="M503.31,-61.7C517.8,-51.73 537.18,-40.4 556.42,-35.2 636.17,-13.67 663.95,-9 742.29,-35.2 762.01,-41.8 780.74,-55.55 794.91,-68.1" style=""/>
<polygon fill="black" stroke="black" points="792.28,-70.44 802,-74.66 797.04,-65.3 792.28,-70.44" style=""/>
<text text-anchor="middle" x="649.36" y="-39.2" font-family="Times,serif" font-size="14.00" style="">Send Request (RRQ/WRQ/DEL)</text>
</g>
<!-- Client_App&#45;&gt;Server -->
<g id="edge9" class="edge" data-name="Client_App-&gt;Server">

<path fill="none" stroke="black" d="M538.8,-72.13C592.27,-66.42 672.93,-61.28 742.29,-71.2 745.85,-71.71 749.48,-72.34 753.13,-73.07" style=""/>
<polygon fill="black" stroke="black" points="752.06,-76.42 762.59,-75.19 753.59,-69.59 752.06,-76.42" style=""/>
<text text-anchor="middle" x="649.36" y="-75.2" font-family="Times,serif" font-size="14.00" style="">Send File Data (WRQ)</text>
</g>
<!-- Server&#45;&gt;Client_App -->
<g id="edge3" class="edge" data-name="Server-&gt;Client_App">

<path fill="none" stroke="black" d="M759.97,-96.06C706.4,-97.29 626.07,-97.67 556.42,-92 554.25,-91.82 552.05,-91.62 549.82,-91.4" style=""/>
<polygon fill="black" stroke="black" points="550.45,-87.95 540.12,-90.29 549.65,-94.9 550.45,-87.95" style=""/>
<text text-anchor="middle" x="649.36" y="-100.2" font-family="Times,serif" font-size="14.00" style="">Acknowledgment (ACK)</text>
</g>
<!-- Server&#45;&gt;Client_App -->
<g id="edge10" class="edge" data-name="Server-&gt;Client_App">

<path fill="none" stroke="black" d="M764.92,-112.43C757.39,-114.32 749.7,-115.93 742.29,-117 660.53,-128.79 636.96,-135.37 556.42,-117 544.03,-114.18 531.32,-109.09 519.88,-103.58" style=""/>
<polygon fill="black" stroke="black" points="521.63,-100.54 511.13,-99.13 518.46,-106.78 521.63,-100.54" style=""/>
<text text-anchor="middle" x="649.36" y="-132.2" font-family="Times,serif" font-size="14.00" style="">Send File Data (RRQ)</text>
</g>
<!-- Storage -->
<g id="node4" class="node" pointer-events="visible" data-name="Storage">

<polygon fill="none" stroke="black" points="1159.33,-143 1156.33,-147 1135.33,-147 1132.33,-143 1075.24,-143 1075.24,-107 1159.33,-107 1159.33,-143" style=""/>
<text text-anchor="middle" x="1117.29" y="-120.8" font-family="Times,serif" font-size="14.00" style="">File Storage</text>
</g>
<!-- Server&#45;&gt;Storage -->
<g id="edge5" class="edge" data-name="Server-&gt;Storage">

<path fill="none" stroke="black" d="M848.81,-112.49C863.33,-121.5 882.07,-131.38 900.42,-136 954.99,-149.75 1019.69,-143.62 1063.94,-136.18" style=""/>
<polygon fill="black" stroke="black" points="1064.28,-139.67 1073.52,-134.48 1063.06,-132.78 1064.28,-139.67" style=""/>
<text text-anchor="middle" x="970.6" y="-148.2" font-family="Times,serif" font-size="14.00" style="">Access File</text>
</g>
<!-- Backup -->
<g id="node5" class="node" pointer-events="visible" data-name="Backup">

<polygon fill="none" stroke="black" points="1169.82,-89 1166.82,-93 1145.82,-93 1142.82,-89 1064.76,-89 1064.76,-53 1169.82,-53 1169.82,-89" style=""/>
<text text-anchor="middle" x="1117.29" y="-66.8" font-family="Times,serif" font-size="14.00" style="">Backup Storage</text>
</g>
<!-- Server&#45;&gt;Backup -->
<g id="edge7" class="edge" data-name="Server-&gt;Backup">

<path fill="none" stroke="black" d="M882.74,-81.63C888.7,-80.69 894.67,-79.85 900.42,-79.2 951.63,-73.41 1010.05,-71.47 1053.2,-70.92" style=""/>
<polygon fill="black" stroke="black" points="1053.18,-74.42 1063.15,-70.82 1053.11,-67.42 1053.18,-74.42" style=""/>
<text text-anchor="middle" x="970.6" y="-83.2" font-family="Times,serif" font-size="14.00" style="">Save Backup (WRQ)</text>
</g>
<!-- Storage&#45;&gt;Server -->
<g id="edge6" class="edge" data-name="Storage-&gt;Server">

<path fill="none" stroke="black" d="M1074.77,-119.37C1063.73,-117.94 1051.81,-116.45 1040.77,-115.2 991.88,-109.66 936.73,-104.31 894.07,-100.37" style=""/>
<polygon fill="black" stroke="black" points="894.46,-96.89 884.18,-99.47 893.82,-103.86 894.46,-96.89" style=""/>
<text text-anchor="middle" x="970.6" y="-119.2" font-family="Times,serif" font-size="14.00" style="">File Data</text>
</g>
<!-- Backup&#45;&gt;Server -->
<g id="edge8" class="edge" data-name="Backup-&gt;Server">

<path fill="none" stroke="black" d="M1064.26,-54.72C1056.46,-52.85 1048.45,-51.24 1040.77,-50.2 978.96,-41.84 960.77,-34.43 900.42,-50.2 885.21,-54.18 869.82,-61.85 856.78,-69.69" style=""/>
<polygon fill="black" stroke="black" points="855.19,-66.55 848.58,-74.84 858.91,-72.48 855.19,-66.55" style=""/>
<text text-anchor="middle" x="970.6" y="-54.2" font-family="Times,serif" font-size="14.00" style="">Recover File on Demand</text>
</g>
</g>
</svg>