<?xml version="1.0" standalone="no"?>
<svg xmlns="http://www.w3.org/2000/svg" xmlns:xlink="http://www.w3.org/1999/xlink" width="1194pt" height="260pt" viewBox="0.00 0.00 1193.80 260">
<g id="graph0" class="graph" transform="translate(4,256) scale(1)" data-name="UDP_File_Transfer_Workflow">

<polygon fill="white" stroke="none" points="-4,4 -4,-256 1189.8,-256 1189.8,4 -4,4"/>
<g id="clust1" class="cluster" data-name="cluster_Client">

<polygon fill="lightblue" stroke="lightblue" points="8,-8 8,-244 890.42,-244 890.42,-8 8,-8"/>
<text text-anchor="middle" x="449.21" y="-227.4" font-family="Times,serif" font-size="14.00">Client (User Side)</text>
</g>
<g id="clust2" class="cluster" data-name="cluster_Server">

<polygon fill="lightgreen" stroke="lightgreen" points="1050.77,-61 1050.77,-192 1184.8,-192 1184.8,-61 1050.77,-61"/>
<text text-anchor="middle" x="1117.79" y="-175.4" font-family="Times,serif" font-size="14.00">Server (System Side)</text>
</g>
<!-- User -->
<g id="node1" class="node" pointer-events="visible" data-name="User">

<ellipse fill="none" stroke="black" cx="100.15" cy="-114" rx="84.31" ry="29.33"/>
<text text-anchor="middle" x="100.15" y="-118.2" font-family="Times,serif" font-size="14.00">User</text>
<text text-anchor="middle" x="100.15" y="-101.4" font-family="Times,serif" font-size="14.00">(Select Operation)</text>
</g>
<!-- Client_App -->
<g id="node2" class="node" pointer-events="visible" data-name="Client_App">

<polygon fill="none" stroke="black" points="538.33,-132 418.69,-132 418.69,-96 538.33,-96 538.33,-132"/>
<text text-anchor="middle" x="478.51" y="-109.8" font-family="Times,serif" font-size="14.00">Client Application</text>
</g>
<!-- User&#45;&gt;Client_App -->
<g id="edge1" class="edge" data-name="User-&gt;Client_App">

<path fill="none" stroke="black" d="M173.31,-98.92C183.02,-97.38 192.88,-96.07 202.31,-95.2 290.07,-87.11 313.1,-84.66 400.6,-95.2 402.8,-95.47 405.03,-95.77 407.28,-96.11"/>
<polygon fill="black" stroke="black" points="406.63,-99.55 417.08,-97.82 407.83,-92.66 406.63,-99.55"/>
<text text-anchor="middle" x="301.46" y="-99.2" font-family="Times,serif" font-size="14.00">Input Operation (RRQ/WRQ/DEL)</text>
</g>
<!-- Client_App&#45;&gt;User -->
<g id="edge4" class="edge" data-name="Client_App-&gt;User">

<path fill="none" stroke="black" d="M418.47,-114C358.92,-114 266.05,-114 196.13,-114"/>
<polygon fill="black" stroke="black" points="196.19,-110.5 186.19,-114 196.19,-117.5 196.19,-110.5"/>
<text text-anchor="middle" x="301.46" y="-118.2" font-family="Times,serif" font-size="14.00">Operation Result/Feedback</text>
</g>
<!-- Server -->
<g id="node3" class="node" pointer-events="visible" data-name="Server">

<polygon fill="none" stroke="black" points="882.49,-132 760.22,-132 760.22,-96 882.49,-96 882.49,-132"/>
<text text-anchor="middle" x="821.36" y="-109.8" font-family="Times,serif" font-size="14.00">Server Application</text>
</g>
<!-- Client_App&#45;&gt;Server -->
<g id="edge2" class="edge" data-name="Client_App-&gt;Server">

<path fill="none" stroke="black" d="M490.98,-95.5C504.09,-76.29 527.53,-47.37 556.42,-35.2 632.55,-3.12 666.04,-3.41 742.29,-35.2 767.26,-45.61 788.34,-68.33 802.28,-86.71"/>
<polygon fill="black" stroke="black" points="799.3,-88.58 808.01,-94.62 804.97,-84.47 799.3,-88.58"/>
<text text-anchor="middle" x="649.36" y="-39.2" font-family="Times,serif" font-size="14.00">Send Request (RRQ/WRQ/DEL)</text>
</g>
<!-- Client_App&#45;&gt;Server -->
<g id="edge9" class="edge" data-name="Client_App-&gt;Server">

<path fill="none" stroke="black" stroke-dasharray="1,5" d="M507.86,-95.69C521.87,-87.7 539.4,-79.25 556.42,-75.2 636.79,-56.08 661.87,-56.32 742.29,-75.2 755.76,-78.36 769.56,-84.21 781.74,-90.43"/>
<polygon fill="black" stroke="black" points="779.75,-93.33 790.22,-94.97 783.06,-87.16 779.75,-93.33"/>
<text text-anchor="middle" x="649.36" y="-79.2" font-family="Times,serif" font-size="14.00" style="">Upload File Data (WRQ)</text>
</g>
<!-- Server&#45;&gt;Client_App -->
<g id="edge3" class="edge" data-name="Server-&gt;Client_App">

<path fill="none" stroke="black" d="M760.07,-129.32C754.1,-130.41 748.09,-131.34 742.29,-132 660.21,-141.34 638.48,-141.48 556.42,-132 554.22,-131.75 552,-131.45 549.76,-131.13"/>
<polygon fill="black" stroke="black" points="550.41,-127.69 539.97,-129.49 549.25,-134.59 550.41,-127.69"/>
<text text-anchor="middle" x="649.36" y="-143.2" font-family="Times,serif" font-size="14.00">Acknowledgment (ACK)</text>
</g><g id="edge11" class="edge" data-name="Client_App-&gt;Server" data-comment="Server-&gt;Client_App">

<path fill="none" stroke="black" stroke-dasharray="5,2" d="M538.71,-111.63C544.69,-111.45 550.68,-111.3 556.42,-111.2 639.02,-109.7 659.69,-109.72 742.29,-111.2 744.34,-111.24 746.41,-111.28 748.51,-111.33"/>
<polygon fill="black" stroke="black" points="748.24,-114.82 758.33,-111.58 748.42,-107.82 748.24,-114.82"/>
<text text-anchor="middle" x="649.36" y="-115.2" font-family="Times,serif" font-size="14.00" style="">Delete File Request (DEL)</text>
</g>
<!-- Server&#45;&gt;Client_App -->

<!-- Storage -->
<g id="node4" class="node" pointer-events="visible" data-name="Storage">

<polygon fill="none" stroke="black" points="1159.33,-159 1156.33,-163 1135.33,-163 1132.33,-159 1075.24,-159 1075.24,-123 1159.33,-123 1159.33,-159"/>
<text text-anchor="middle" x="1117.29" y="-136.8" font-family="Times,serif" font-size="14.00">File Storage</text>
</g><g id="edge10" class="edge" data-name="Server-&gt;Client_App" data-comment="Storage">

<path fill="none" stroke="black" d="M796.92,-132.31C782.15,-142.66 762.17,-154.58 742.29,-160 662.59,-181.73 636.05,-182 556.42,-160 540.77,-155.68 525.09,-147.23 512.01,-138.74"/>
<polygon fill="black" stroke="black" points="514.05,-135.89 503.81,-133.16 510.11,-141.68 514.05,-135.89"/>
<text text-anchor="middle" x="649.36" y="-180.2" font-family="Times,serif" font-size="14.00" style="">Download File Data (RRQ)</text>
</g>
<!-- Server&#45;&gt;Storage -->
<g id="edge5" class="edge" data-name="Server-&gt;Storage">

<path fill="none" stroke="black" d="M851.94,-132.34C866.06,-140.04 883.53,-148.11 900.42,-152 955.14,-164.61 1019.64,-158.72 1063.79,-151.65"/>
<polygon fill="black" stroke="black" points="1064.35,-155.11 1073.63,-149.99 1063.19,-148.2 1064.35,-155.11"/>
<text text-anchor="middle" x="970.6" y="-163.2" font-family="Times,serif" font-size="14.00">Access File</text>
</g>
<!-- Backup -->
<g id="node5" class="node" pointer-events="visible" data-name="Backup">

<polygon fill="none" stroke="black" points="1169.82,-105 1166.82,-109 1145.82,-109 1142.82,-105 1064.76,-105 1064.76,-69 1169.82,-69 1169.82,-105"/>
<text text-anchor="middle" x="1117.29" y="-82.8" font-family="Times,serif" font-size="14.00">Backup Storage</text>
</g>
<!-- Server&#45;&gt;Backup -->
<g id="edge7" class="edge" data-name="Server-&gt;Backup">

<path fill="none" stroke="black" d="M882.73,-100.86C888.69,-99.84 894.66,-98.93 900.42,-98.2 951.58,-91.73 1010.01,-88.98 1053.17,-87.82"/>
<polygon fill="black" stroke="black" points="1053.21,-91.32 1063.12,-87.58 1053.04,-84.32 1053.21,-91.32"/>
<text text-anchor="middle" x="970.6" y="-102.2" font-family="Times,serif" font-size="14.00">Save Backup (on WRQ)</text>
</g>
<!-- Storage&#45;&gt;Server -->
<g id="edge6" class="edge" data-name="Storage-&gt;Server">

<path fill="none" stroke="black" d="M1074.79,-135.23C1063.75,-133.8 1051.82,-132.35 1040.77,-131.2 991.91,-126.11 936.76,-121.78 894.1,-118.73"/>
<polygon fill="black" stroke="black" points="894.42,-115.25 884.2,-118.04 893.93,-122.23 894.42,-115.25"/>
<text text-anchor="middle" x="970.6" y="-135.2" font-family="Times,serif" font-size="14.00">File Data</text>
</g>
<!-- Backup&#45;&gt;Server -->
<!-- Backup&#45;&gt;Server -->
<g id="edge8" class="edge" data-name="Backup-&gt;Server">

<path fill="none" stroke="black" d="M1064.33,-71.99C1020.02,-61.59 955.01,-52.09 900.42,-67.2 884.25,-71.68 868.06,-80.5 854.65,-89.28"/>
<polygon fill="black" stroke="black" points="852.93,-86.22 846.66,-94.76 856.89,-91.99 852.93,-86.22"/>
<text text-anchor="middle" x="970.6" y="-71.2" font-family="Times,serif" font-size="14.00">Recover File on Demand</text>
</g>

</g>
</svg>